<svg width="4" height="6" viewBox="0 0 4 6" fill="none" xmlns="http://www.w3.org/2000/svg">
<path d="M0.75 5.44958V0.794584C0.750018 0.712188 0.774464 0.631647 0.820249 0.563143C0.866034 0.494639 0.931103 0.441247 1.00723 0.409718C1.08335 0.378189 1.16712 0.369938 1.24793 0.386007C1.32874 0.402077 1.40298 0.441747 1.46125 0.500001L3.78875 2.8275C3.86686 2.90564 3.91074 3.0116 3.91074 3.12208C3.91074 3.23257 3.86686 3.33853 3.78875 3.41667L1.46125 5.74417C1.40298 5.80242 1.32874 5.84209 1.24793 5.85816C1.16712 5.87423 1.08335 5.86598 1.00723 5.83445C0.931103 5.80292 0.866034 5.74953 0.820249 5.68102C0.774464 5.61252 0.750018 5.53198 0.75 5.44958Z" fill="#161616"/>
</svg>
