<svg width="31" height="35" viewBox="0 0 31 35" fill="none" xmlns="http://www.w3.org/2000/svg">
<path opacity="0.8" d="M27.5812 34.9751C26.874 34.975 26.1958 34.8213 25.6958 34.5479L3.90382 22.6328C1.40421 21.2656 0 19.4117 0 17.4786C0 15.5455 1.40421 13.6915 3.90382 12.3244L25.6958 0.40929C26.1988 0.143696 26.8724 -0.00326691 27.5716 5.51178e-05C28.2707 0.00337715 28.9396 0.156718 29.434 0.427051C29.9284 0.697384 30.2089 1.06308 30.2149 1.44537C30.221 1.82767 29.9522 2.19597 29.4665 2.47096L7.67449 14.3861C6.17472 15.2064 5.33219 16.3187 5.33219 17.4786C5.33219 18.6384 6.17472 19.7508 7.67449 20.5711L29.4665 32.4862C29.8393 32.6901 30.0932 32.9499 30.196 33.2327C30.2989 33.5155 30.2461 33.8086 30.0443 34.075C29.8425 34.3414 29.5008 34.5691 29.0624 34.7293C28.6239 34.8895 28.1085 34.975 27.5812 34.9751Z" fill="#626262"/>
</svg>
