<svg width="31" height="35" viewBox="0 0 31 35" fill="none" xmlns="http://www.w3.org/2000/svg">
<path opacity="0.8" d="M2.6661 34.9751C2.13876 34.975 1.6233 34.8895 1.18488 34.7293C0.74645 34.569 0.404745 34.3414 0.202958 34.075C0.00117099 33.8086 -0.0516377 33.5155 0.0512091 33.2327C0.154056 32.9499 0.407941 32.6901 0.780766 32.4862L22.5728 20.5711C24.0725 19.7508 24.9151 18.6384 24.9151 17.4786C24.9151 16.3187 24.0725 15.2064 22.5728 14.3861L0.780766 2.47096C0.295011 2.19597 0.0262252 1.82767 0.0323009 1.44537C0.0383767 1.06308 0.318828 0.697384 0.81325 0.427051C1.30767 0.156718 1.9765 0.00337715 2.6757 5.51178e-05C3.37489 -0.00326691 4.04849 0.143696 4.55143 0.40929L26.3434 12.3244C28.8398 13.6925 30.2417 15.5461 30.2417 17.4786C30.2417 19.4111 28.8398 21.2647 26.3434 22.6328L4.55143 34.5479C4.05145 34.8213 3.37328 34.975 2.6661 34.9751Z" fill="#626262"/>
</svg>
