<svg width="24" height="23" viewBox="0 0 24 23" fill="none" xmlns="http://www.w3.org/2000/svg">
<path d="M0.0437698 10.6035C0.218863 9.46335 1.06305 8.56615 2.19489 8.32939C2.62637 8.24216 3.06409 8.27331 3.50182 8.27955C3.65815 8.27955 3.69567 8.23593 3.69567 8.0864C3.68317 7.59419 3.75195 7.10821 3.84575 6.62845C4.6962 2.41038 8.67952 -0.461893 12.988 0.0614716C15.5581 0.372998 17.5529 1.64403 18.9724 3.7811C19.8353 5.07705 20.2668 6.52253 20.2918 8.08017C20.2918 8.2297 20.3293 8.27955 20.4857 8.27332C20.7608 8.26085 21.0297 8.26709 21.3048 8.27332C22.593 8.3107 23.6436 9.1892 23.9187 10.4415C23.9375 10.5225 23.9062 10.6285 24 10.6908C24 10.7531 24 10.8154 24 10.8777C24 11.6378 24 12.3979 24 13.1643C24 13.2391 24 13.32 24 13.3948C23.9125 13.4322 23.9437 13.5132 23.9312 13.5755C23.6498 14.8652 22.6743 15.7063 21.3549 15.7749C21.1923 15.7811 21.1548 15.831 21.1423 15.9929C20.9672 18.4166 19.7353 20.0926 17.4966 21.0397C16.6774 21.3886 15.802 21.4509 14.9203 21.4135C14.7202 21.4073 14.6389 21.4571 14.5638 21.6565C14.2762 22.4291 13.7071 22.8901 12.8755 22.9649C12.2939 23.0148 11.7061 23.0085 11.1183 22.9649C10.074 22.8901 9.28609 22.0054 9.3111 20.9587C9.33611 19.9182 10.1553 19.0771 11.1933 19.0397C11.6561 19.021 12.1126 19.0334 12.5753 19.0334C13.5946 19.0334 14.2762 19.5132 14.6076 20.4665C14.6451 20.5786 14.6952 20.5911 14.789 20.5848C15.2329 20.5724 15.6769 20.5911 16.1209 20.5412C18.3721 20.2733 20.2355 18.2546 20.3043 15.9992C20.3106 15.8434 20.2793 15.7811 20.1105 15.7873C19.5915 15.7936 19.4601 15.6503 19.4601 15.1394C19.4601 12.8839 19.4601 10.6347 19.4601 8.37923C19.4601 7.9431 19.4351 7.51319 19.3663 7.07705C18.5784 1.99294 12.7691 -0.792112 8.30432 1.81225C5.83429 3.2515 4.57738 5.45088 4.54612 8.3107C4.5211 10.6098 4.53986 12.9088 4.53986 15.2079C4.53986 15.6129 4.37103 15.7811 3.97707 15.7873C3.52683 15.7873 3.07035 15.7936 2.62011 15.7749C1.37572 15.725 0.35018 14.8528 0.0812912 13.644C0.0625305 13.563 0.0875454 13.4571 -1.90735e-06 13.3948C-1.90735e-06 13.32 -1.90735e-06 13.2391 -1.90735e-06 13.1643C-1.90735e-06 12.4166 -1.90735e-06 11.6752 -1.90735e-06 10.9275C-1.90735e-06 10.8652 -1.90735e-06 10.8029 -1.90735e-06 10.7406C0.0687847 10.7157 0.0375175 10.6471 0.0437698 10.6035ZM2.61386 14.94C2.90776 14.9524 3.20792 14.94 3.50182 14.9524C3.65815 14.9587 3.69567 14.9026 3.69567 14.7593C3.68942 13.8434 3.68942 12.9275 3.68942 12.0116C3.68942 11.1269 3.68317 10.2422 3.69567 9.35743C3.70193 9.13936 3.63314 9.09575 3.43304 9.11444C3.08286 9.13936 2.73267 9.08951 2.38249 9.15805C1.56956 9.30758 0.925482 9.98671 0.875456 10.8091C0.825428 11.6316 0.825428 12.454 0.875456 13.2764C0.937988 14.1799 1.70088 14.8964 2.61386 14.94ZM20.5294 14.9524C20.9171 14.9275 21.3111 14.9898 21.6988 14.8964C22.493 14.7032 23.0683 14.0553 23.1183 13.2453C23.1683 12.4415 23.1683 11.6316 23.1183 10.8216C23.062 9.86833 22.2741 9.14559 21.3111 9.10821C21.036 9.10198 20.7608 9.11444 20.4919 9.10198C20.3356 9.09575 20.2981 9.14559 20.2981 9.29512C20.3043 10.211 20.3043 11.1269 20.3043 12.0428C20.3043 12.9338 20.3106 13.831 20.2981 14.7219C20.2918 14.9213 20.3544 14.9649 20.5294 14.9524ZM13.8385 20.94C13.8134 20.3543 13.3507 19.8933 12.7566 19.8683C12.5003 19.8559 12.2439 19.8683 11.9875 19.8683C11.7374 19.8683 11.4872 19.8621 11.2371 19.8683C10.643 19.8933 10.1866 20.3543 10.1553 20.94C10.1303 21.5444 10.5492 22.0615 11.1433 22.1176C11.7123 22.1674 12.2814 22.1674 12.8504 22.1176C13.4508 22.0677 13.8697 21.5444 13.8385 20.94Z" fill="black"/>
</svg>
