<svg width="19" height="26" viewBox="0 0 19 26" fill="none" xmlns="http://www.w3.org/2000/svg">
<g clip-path="url(#clip0_535_1576)">
<path d="M17.3005 25.869C18.2265 25.6738 18.9356 24.8316 18.9256 23.6753C18.9145 22.33 18.9232 20.9841 18.9232 19.6382C18.9232 15.2037 18.9194 10.7691 18.9294 6.33453C18.9306 5.91982 18.8017 5.61197 18.519 5.32384C16.9435 3.72161 15.3753 2.11176 13.814 0.49491C13.5338 0.204869 13.2351 0.0700259 12.8303 0.071298C9.31779 0.082747 5.80526 0.0776585 2.29274 0.0782946C1.66734 0.0782946 1.11074 0.247485 0.65827 0.725798C0.273361 1.13287 0.114687 1.62263 0.0781171 2.17028C0.0743982 2.22943 0.0756378 2.28858 0.0756378 2.34774C0.0756378 9.44801 0.0756378 16.5483 0.0756378 23.6486C0.0756378 24.3215 0.259105 24.913 0.76178 25.3786C1.02025 25.6178 1.31714 25.7673 1.64936 25.8576C1.73676 25.8811 1.85824 25.8608 1.88056 26.0001H17.1182C17.1269 25.8805 17.2267 25.8843 17.3005 25.869ZM13.7191 1.9661C14.8323 3.10909 15.9629 4.26926 17.0811 5.4167C16.3373 5.4167 15.5396 5.44087 14.7443 5.40907C14.1288 5.38426 13.7415 4.96129 13.7247 4.32459C13.7036 3.5238 13.7198 2.7211 13.7198 1.96674L13.7191 1.9661ZM16.7711 24.9194C11.9235 24.9219 7.0759 24.9219 2.2289 24.9194C1.47086 24.9194 1.05372 24.4716 1.05372 23.6721C1.05248 20.1096 1.05372 16.5477 1.05372 12.9851C1.05372 9.42257 1.05372 5.89438 1.05372 2.34901C1.05372 2.02017 1.10144 1.71105 1.32644 1.45281C1.55081 1.19521 1.83655 1.08326 2.16196 1.08326C5.60816 1.08008 9.05375 1.08326 12.5 1.0769C12.6859 1.0769 12.6685 1.17358 12.6685 1.29634C12.6673 2.28604 12.6599 3.27638 12.6698 4.26608C12.6791 5.17055 13.0671 5.85303 13.8574 6.27537C14.1778 6.44647 14.5274 6.4999 14.885 6.50054C15.8334 6.50181 16.7811 6.50499 17.7294 6.49736C17.8943 6.49608 17.9525 6.52852 17.9525 6.71425C17.9476 12.3834 17.9494 18.0532 17.9469 23.7223C17.9469 24.478 17.5124 24.9188 16.773 24.9194H16.7711Z" fill="white"/>
<path d="M18.9957 23.7833C19.0012 17.8782 18.9981 11.9725 19 6.06732C19 5.84152 18.9262 5.65898 18.7719 5.5006C17.0631 3.74891 15.3555 1.99594 13.6485 0.241701C13.4954 0.0845952 13.3212 0 13.0999 0C9.44855 0.00254422 5.79657 0.000636055 2.1452 0.00318027C1.8136 0.00318027 1.48881 0.0661497 1.1913 0.225799C0.38243 0.660225 0.00185946 1.36052 0.00123964 2.28534C-0.000619821 4.94214 0.000619821 7.59831 0.000619821 10.2551C0.000619821 14.7304 0.00123964 19.2063 0 23.6816C0 24.2668 0.143179 24.7953 0.523129 25.2495C0.884485 25.6813 1.35555 25.8887 1.88054 26C1.85822 25.8601 1.73674 25.8811 1.64934 25.8575C1.31712 25.7678 1.02023 25.6184 0.76176 25.3786C0.259085 24.913 0.0756182 24.3221 0.0756182 23.6485C0.0756182 16.5482 0.0756182 9.44795 0.0756182 2.34768C0.0756182 2.28852 0.0737587 2.22937 0.0780975 2.17022C0.114667 1.62258 0.273341 1.13281 0.65825 0.725738C1.1101 0.247425 1.66732 0.0788708 2.29272 0.0788708C5.80525 0.0788708 9.31777 0.0839592 12.8303 0.0718742C13.235 0.0706021 13.5344 0.205446 13.814 0.495486C15.3753 2.11234 16.9434 3.72219 18.519 5.32441C18.8023 5.61255 18.9306 5.9204 18.9293 6.3351C18.9188 10.7697 18.9231 15.2042 18.9231 19.6388C18.9231 20.9847 18.9145 22.33 18.9256 23.6759C18.9355 24.8322 18.2265 25.6743 17.3004 25.8696C17.2267 25.8849 17.1269 25.8817 17.1182 26.0006C17.1393 25.9892 17.1597 25.972 17.1821 25.9676C18.2779 25.7723 18.9944 24.9302 18.995 23.7833H18.9957Z" fill="white"/>
<path d="M13.5841 11.5756C13.3907 11.4878 13.1837 11.4598 12.9735 11.442C12.5093 11.4026 12.0537 11.4713 11.5994 11.5489C11.5033 11.5654 11.432 11.5514 11.3539 11.4872C10.8042 11.0375 10.304 10.5369 9.84343 9.99182C9.77215 9.90723 9.7703 9.83917 9.80067 9.7463C9.86575 9.54913 9.93021 9.35132 9.98475 9.15096C10.1081 8.69745 10.2717 8.25158 10.26 7.67722C10.2662 7.54619 10.2358 7.32739 10.185 7.1124C10.0858 6.69579 9.85583 6.4191 9.42382 6.33578C8.78168 6.21239 8.25793 6.49098 8.0788 7.10541C7.92509 7.63333 7.92075 8.16762 8.11909 8.69491C8.28892 9.14651 8.54491 9.54404 8.81825 9.93203C8.8635 9.99564 8.90627 10.0516 8.87341 10.147C8.61743 10.8918 8.40855 11.6532 8.11537 12.3853C8.07632 12.4839 8.02054 12.5443 7.92819 12.5895C7.3406 12.8763 6.75425 13.1651 6.17037 13.4596C5.85365 13.6192 5.54931 13.8018 5.28155 14.0422C4.67165 14.5899 4.81235 15.3748 5.56853 15.6648C6.13628 15.8823 6.59805 15.6603 7.02511 15.3086C7.69142 14.7603 8.15876 14.0511 8.54491 13.2802C8.59759 13.1753 8.66701 13.1149 8.7761 13.0741C9.54778 12.7879 10.3418 12.5907 11.1444 12.4235C11.2306 12.4057 11.2889 12.4292 11.357 12.4788C11.6242 12.6753 11.8938 12.8693 12.1678 13.0551C12.5644 13.3241 12.9797 13.4895 13.4669 13.3184C13.8363 13.1893 14.0675 12.8916 14.096 12.468C14.1258 12.0215 13.9733 11.7518 13.5841 11.575V11.5756ZM6.44434 14.7819C6.24227 14.9352 6.03029 15.0262 5.77865 14.9111C5.67142 14.8621 5.64724 14.7928 5.7303 14.7031C5.796 14.6325 5.86356 14.56 5.94166 14.5065C6.38855 14.2006 6.87759 13.978 7.36601 13.7534C7.11064 14.1503 6.81499 14.5014 6.44496 14.7819H6.44434ZM8.78106 7.42598C8.83499 7.197 8.92734 7.10668 9.10895 7.10032C9.35997 7.09141 9.43683 7.15947 9.47278 7.42089C9.51555 7.7351 9.50439 8.04486 9.4139 8.3508C9.34262 8.59123 9.27506 8.8323 9.19696 9.10198C8.84924 8.57978 8.63478 8.04995 8.78106 7.42598ZM9.02961 12.1512C9.1827 11.6799 9.32774 11.2328 9.48146 10.7595C9.80067 11.1151 10.1143 11.4401 10.4874 11.762C9.97608 11.8739 9.51369 12.0062 9.02961 12.1512ZM13.3305 12.4241C13.3213 12.5564 13.2314 12.5825 13.121 12.6003C12.9655 12.6257 12.8428 12.5519 12.7194 12.482C12.6016 12.4152 12.4913 12.3344 12.3779 12.26C12.6469 12.2174 12.9016 12.204 13.1539 12.26C13.2394 12.2791 13.3398 12.2956 13.3312 12.4235L13.3305 12.4241Z" fill="white"/>
<path d="M18.9386 16.3813H7.95227V23.1038H18.9386V16.3813Z" fill="white"/>
<path d="M9.85767 21.2012V18.1748H11.0211C11.2448 18.1748 11.4351 18.2187 11.5925 18.3058C11.75 18.393 11.8702 18.5138 11.9533 18.6677C12.0363 18.8217 12.0779 18.9998 12.0779 19.2008C12.0779 19.4018 12.0357 19.5792 11.9514 19.7325C11.8671 19.8864 11.745 20.006 11.5851 20.0919C11.4252 20.1777 11.2318 20.2204 11.0056 20.2204H10.2636V19.7077H10.9045C11.0248 19.7077 11.124 19.6861 11.2021 19.6435C11.2802 19.6008 11.339 19.541 11.3775 19.4647C11.4165 19.3884 11.4357 19.3006 11.4357 19.2008C11.4357 19.1009 11.4165 19.0125 11.3775 18.9368C11.3384 18.8611 11.2795 18.8026 11.2008 18.7612C11.1221 18.7193 11.0223 18.6983 10.9014 18.6983H10.4812V21.2018H9.85767V21.2012Z" fill="#01528D"/>
<path d="M13.3354 21.2012H12.2898V18.1748H13.3441C13.641 18.1748 13.8964 18.2352 14.1102 18.3561C14.324 18.4769 14.4889 18.6499 14.6048 18.8757C14.7207 19.1015 14.7784 19.3712 14.7784 19.6854C14.7784 19.9996 14.7207 20.2719 14.6048 20.4983C14.4889 20.7247 14.3234 20.899 14.1077 21.0199C13.892 21.1407 13.6348 21.2018 13.3354 21.2018V21.2012ZM12.9133 20.6529H13.3094C13.4935 20.6529 13.6491 20.6192 13.7755 20.5517C13.9019 20.4843 13.9968 20.3794 14.0606 20.2369C14.1245 20.0944 14.1561 19.9106 14.1561 19.6848C14.1561 19.459 14.1245 19.2784 14.0606 19.1365C13.9968 18.9947 13.9019 18.8904 13.7761 18.8229C13.6503 18.7555 13.4953 18.7224 13.3113 18.7224H12.914V20.6522L12.9133 20.6529Z" fill="#01528D"/>
<path d="M15.0846 21.2012V18.1748H17.0377V18.7021H15.7081V19.4234H16.9075V19.9507H15.7081V21.2012H15.0846Z" fill="#01528D"/>
</g>
<defs>
<clipPath id="clip0_535_1576">
<rect width="19" height="26" fill="white"/>
</clipPath>
</defs>
</svg>
