<svg width="23" height="23" viewBox="0 0 23 23" fill="none" xmlns="http://www.w3.org/2000/svg">
<g clip-path="url(#clip0_634_1414)">
<path d="M22.7196 21.3641L16.9993 15.6438C18.5582 13.7373 19.3246 11.3046 19.1401 8.8488C18.9556 6.39305 17.8342 4.10215 16.008 2.44997C14.1818 0.797797 11.7904 -0.0892541 9.32847 -0.0276986C6.86656 0.0338569 4.52249 1.03931 2.78111 2.78069C1.03974 4.52206 0.0342841 6.86614 -0.0272714 9.32805C-0.0888269 11.79 0.798224 14.1813 2.4504 16.0076C4.10258 17.8338 6.39347 18.9551 8.84923 19.1397C11.305 19.3242 13.7377 18.5577 15.6442 16.9989L21.3645 22.7192C21.5453 22.8938 21.7873 22.9903 22.0386 22.9882C22.2899 22.986 22.5303 22.8852 22.7079 22.7075C22.8856 22.5298 22.9864 22.2895 22.9886 22.0382C22.9908 21.7869 22.8942 21.5448 22.7196 21.3641ZM9.58373 17.25C8.06741 17.25 6.58514 16.8003 5.32436 15.9579C4.06359 15.1155 3.08093 13.9181 2.50066 12.5172C1.92039 11.1163 1.76856 9.5748 2.06438 8.08761C2.3602 6.60043 3.09038 5.23436 4.16258 4.16216C5.23478 3.08995 6.60085 2.35977 8.08804 2.06395C9.57523 1.76813 11.1167 1.91996 12.5176 2.50023C13.9185 3.0805 15.1159 4.06316 15.9583 5.32394C16.8008 6.58471 17.2504 8.06698 17.2504 9.58331C17.2481 11.6159 16.4396 13.5647 15.0024 15.0019C13.5651 16.4392 11.6164 17.2477 9.58373 17.25Z" fill="white"/>
</g>
<defs>
<clipPath id="clip0_634_1414">
<rect width="23" height="23" fill="white"/>
</clipPath>
</defs>
</svg>
