<svg width="23" height="23" viewBox="0 0 23 23" fill="none" xmlns="http://www.w3.org/2000/svg">
<path d="M22.7192 21.3641L16.999 15.6438C18.5578 13.7373 19.3242 11.3046 19.1397 8.8488C18.9552 6.39305 17.8339 4.10215 16.0076 2.44997C14.1814 0.797797 11.79 -0.0892541 9.32811 -0.0276986C6.8662 0.0338569 4.52213 1.03931 2.78075 2.78069C1.03937 4.52206 0.0339179 6.86614 -0.0276376 9.32805C-0.0891931 11.79 0.797858 14.1813 2.45003 16.0076C4.10221 17.8338 6.39311 18.9551 8.84886 19.1397C11.3046 19.3242 13.7374 18.5577 15.6439 16.9989L21.3642 22.7192C21.5449 22.8938 21.787 22.9903 22.0383 22.9882C22.2895 22.986 22.5299 22.8852 22.7076 22.7075C22.8853 22.5298 22.986 22.2895 22.9882 22.0382C22.9904 21.7869 22.8938 21.5448 22.7192 21.3641ZM9.58337 17.25C8.06704 17.25 6.58477 16.8003 5.324 15.9579C4.06322 15.1155 3.08056 13.9181 2.50029 12.5172C1.92002 11.1163 1.76819 9.5748 2.06401 8.08762C2.35983 6.60043 3.09001 5.23436 4.16222 4.16216C5.23442 3.08995 6.60049 2.35977 8.08768 2.06395C9.57486 1.76813 11.1164 1.91996 12.5173 2.50023C13.9182 3.0805 15.1155 4.06316 15.958 5.32394C16.8004 6.58471 17.25 8.06698 17.25 9.58331C17.2478 11.6159 16.4393 13.5647 15.002 15.0019C13.5647 16.4392 11.616 17.2477 9.58337 17.25Z" fill="#131313"/>
</svg>
