<svg width="12" height="12" viewBox="0 0 12 12" fill="none" xmlns="http://www.w3.org/2000/svg">
<path d="M6.11834 12C6.0786 12 6.03887 12 5.99886 11.9998C5.05821 12.0021 4.18906 11.9782 3.34382 11.9268C2.56888 11.8796 1.86152 11.6118 1.29808 11.1524C0.754423 10.7091 0.383163 10.1097 0.194649 9.37106C0.0305798 8.72799 0.0218819 8.09673 0.0135503 7.48616C0.0075076 7.04808 0.00128179 6.52898 0 6.00108C0.00128179 5.47099 0.0075076 4.95188 0.0135503 4.5138C0.0218819 3.90333 0.0305798 3.27207 0.194649 2.62891C0.383163 1.89026 0.754423 1.29086 1.29808 0.847564C1.86152 0.388151 2.56888 0.120359 3.34391 0.0732087C4.18916 0.0218475 5.05848 -0.00213939 6.00114 0.000149441C6.94207 -0.00186473 7.81094 0.0218475 8.65618 0.0732087C9.43112 0.120359 10.1385 0.388151 10.7019 0.847564C11.2457 1.29086 11.6168 1.89026 11.8054 2.62891C11.9694 3.27198 11.9781 3.90333 11.9864 4.5138C11.9925 4.95188 11.9988 5.47099 12 5.99888V6.00108C11.9988 6.52898 11.9925 7.04808 11.9864 7.48616C11.9781 8.09664 11.9695 8.7279 11.8054 9.37106C11.6168 10.1097 11.2457 10.7091 10.7019 11.1524C10.1385 11.6118 9.43112 11.8796 8.65618 11.9268C7.84674 11.976 7.01522 12 6.11834 12ZM5.99886 11.0623C6.92421 11.0645 7.77386 11.0412 8.59924 10.991C9.18519 10.9554 9.69324 10.7652 10.1095 10.4258C10.4942 10.1121 10.7591 9.67922 10.8969 9.13924C11.0335 8.60393 11.0414 8.02916 11.049 7.47335C11.055 7.03819 11.0612 6.52275 11.0625 5.99998C11.0612 5.47712 11.055 4.96177 11.049 4.52662C11.0414 3.9708 11.0335 3.39603 10.8969 2.86063C10.7591 2.32065 10.4942 1.88779 10.1095 1.57404C9.69324 1.23474 9.18519 1.04459 8.59924 1.00897C7.77386 0.958709 6.92421 0.935546 6.00105 0.93756C5.07588 0.935363 4.22614 0.958709 3.40076 1.00897C2.8148 1.04459 2.30676 1.23474 1.89054 1.57404C1.50583 1.88779 1.24086 2.32065 1.10307 2.86063C0.966468 3.39603 0.958594 3.97071 0.950995 4.52662C0.945043 4.96214 0.938818 5.47786 0.937536 6.00108C0.938818 6.52202 0.945043 7.03783 0.950995 7.47335C0.958594 8.02916 0.966468 8.60393 1.10307 9.13924C1.24086 9.67922 1.50583 10.1121 1.89054 10.4258C2.30676 10.7651 2.8148 10.9553 3.40076 10.9909C4.22614 11.0412 5.07606 11.0646 5.99886 11.0623ZM5.97652 8.92968C4.3611 8.92968 3.04672 7.61544 3.04672 5.99998C3.04672 4.38453 4.3611 3.07029 5.97652 3.07029C7.59203 3.07029 8.90631 4.38453 8.90631 5.99998C8.90631 7.61544 7.59203 8.92968 5.97652 8.92968ZM5.97652 4.00779C4.87802 4.00779 3.98425 4.90153 3.98425 5.99998C3.98425 7.09844 4.87802 7.99218 5.97652 7.99218C7.0751 7.99218 7.96878 7.09844 7.96878 5.99998C7.96878 4.90153 7.0751 4.00779 5.97652 4.00779ZM9.23445 2.13278C8.84616 2.13278 8.5313 2.44754 8.5313 2.83591C8.5313 3.22428 8.84616 3.53904 9.23445 3.53904C9.62283 3.53904 9.9376 3.22428 9.9376 2.83591C9.9376 2.44754 9.62283 2.13278 9.23445 2.13278Z" fill="#626262"/>
</svg>
