<svg width="17" height="13" viewBox="0 0 17 13" fill="none" xmlns="http://www.w3.org/2000/svg">
<path d="M10.5048 6.1408L7.1199 3.82545C6.92527 3.69233 6.69522 3.6973 6.50445 3.83861C6.31356 3.98006 6.19971 4.22995 6.19971 4.50732V9.09826C6.19971 9.37431 6.31286 9.62376 6.50246 9.76536C6.60147 9.83931 6.71124 9.87642 6.82124 9.87642C6.922 9.87642 7.023 9.8453 7.11593 9.78275L10.501 7.5073C10.7019 7.37213 10.8273 7.11099 10.8283 6.82559C10.8291 6.54019 10.7052 6.27788 10.5048 6.1408ZM7.09758 8.52074V5.08951L9.62741 6.82003L7.09758 8.52074Z" fill="#626262"/>
<path d="M16.8748 3.55709L16.874 3.54966C16.8596 3.419 16.7166 2.25684 16.1259 1.66573C15.4431 0.970459 14.6691 0.885997 14.2968 0.845499C14.266 0.842156 14.2378 0.839059 14.2125 0.835839L14.1829 0.832867C11.9393 0.676822 8.55087 0.655521 8.51695 0.655397L8.51397 0.655273L8.51099 0.655397C8.47707 0.655521 5.08869 0.676822 2.82485 0.832867L2.79493 0.835839C2.77085 0.838936 2.74431 0.841784 2.71543 0.845004C2.34745 0.885625 1.5817 0.970211 0.897007 1.69062C0.334413 2.27541 0.171785 3.41268 0.155082 3.54049L0.15314 3.55709C0.14809 3.61145 0.0283203 4.90576 0.0283203 6.20514V7.41981C0.0283203 8.7192 0.14809 10.0135 0.15314 10.068L0.154046 10.0762C0.168418 10.2047 0.311365 11.3456 0.899337 11.9369C1.5413 12.6089 2.35302 12.6978 2.78963 12.7456C2.85864 12.7532 2.91807 12.7596 2.9586 12.7665L2.99783 12.7717C4.29329 12.8896 8.35497 12.9476 8.52718 12.95L8.53236 12.9501L8.53753 12.95C8.57146 12.9499 11.9597 12.9286 14.2034 12.7725L14.233 12.7695C14.2614 12.766 14.2932 12.7627 14.3282 12.7593C14.6941 12.7221 15.4557 12.645 16.1309 11.9343C16.6935 11.3494 16.8563 10.2121 16.8729 10.0845L16.8748 10.0679C16.8798 10.0134 16.9997 8.7192 16.9997 7.41981V6.20514C16.9996 4.90576 16.8798 3.61158 16.8748 3.55709ZM16.0051 7.41981C16.0051 8.62247 15.8953 9.86105 15.8849 9.97474C15.8427 10.2879 15.6711 11.0075 15.397 11.2924C14.9744 11.7372 14.5403 11.7813 14.2233 11.8133C14.185 11.8172 14.1495 11.8209 14.1174 11.8247C11.9473 11.9748 8.68683 11.9979 8.53663 11.9987C8.36817 11.9964 4.36592 11.9378 3.10996 11.8262C3.04561 11.8162 2.97608 11.8085 2.90279 11.8006C2.53105 11.7598 2.02219 11.7041 1.6309 11.2924L1.62171 11.283C1.35239 11.0147 1.18575 10.3418 1.14341 9.97845C1.13551 9.8925 1.02286 8.63932 1.02286 7.41981V6.20514C1.02286 5.00384 1.1324 3.76663 1.14302 3.65059C1.19339 3.28166 1.36819 2.60571 1.6309 2.33251C2.06648 1.87428 2.52574 1.8235 2.82951 1.78994C2.85851 1.78672 2.88557 1.78375 2.91056 1.78065C5.11225 1.62981 8.39614 1.60739 8.51397 1.60653C8.6318 1.60727 11.9145 1.62981 14.0967 1.78065C14.1235 1.78387 14.1527 1.78709 14.1842 1.79056C14.4966 1.82462 14.9688 1.87614 15.4022 2.31826L15.4062 2.32235C15.6755 2.59072 15.8422 3.27534 15.8845 3.64601C15.892 3.72713 16.0051 4.98304 16.0051 6.20514V7.41981Z" fill="#626262"/>
</svg>
