<?xml version="1.0" standalone="no"?>
<!DOCTYPE svg PUBLIC "-//W3C//DTD SVG 20010904//EN"
 "http://www.w3.org/TR/2001/REC-SVG-20010904/DTD/svg10.dtd">
<svg version="1.0" xmlns="http://www.w3.org/2000/svg"
 width="100.000000pt" height="100.000000pt" viewBox="0 0 100.000000 100.000000"
 preserveAspectRatio="xMidYMid meet">
<metadata>
Created by potrace 1.14, written by Peter Selinger 2001-2017
</metadata>
<g transform="translate(0.000000,100.000000) scale(0.100000,-0.100000)"
fill="#000000" stroke="none">
<path d="M374 970 c-30 -12 -54 -49 -54 -82 0 -15 27 -77 61 -137 64 -115 68
-144 26 -155 -15 -4 -34 5 -66 29 -71 56 -139 42 -160 -31 -16 -58 30 -114 94
-114 13 0 39 13 57 28 39 33 75 49 104 46 21 -1 73 -33 102 -61 16 -16 51 -17
87 -3 32 12 57 67 47 102 -4 13 -49 99 -101 191 -106 191 -131 214 -197 187z"/>
<path d="M373 502 c-32 -24 -43 -69 -27 -109 24 -57 91 -71 141 -29 52 43 72
50 94 30 10 -9 19 -22 19 -27 0 -6 -28 -60 -61 -120 -34 -60 -61 -121 -61
-134 0 -14 8 -37 19 -51 27 -36 63 -46 105 -29 27 11 45 35 103 138 109 196
133 246 128 271 -8 42 -37 69 -79 75 -34 4 -45 0 -87 -33 -62 -49 -102 -49
-165 1 -51 39 -93 45 -129 17z"/>
</g>
</svg>
